/* XPM */
static char * ru22++_xpm[] = {
"22 22 137 2",
"  	c None",
". 	c #C8C8C8",
"+ 	c #FAFAFA",
"@ 	c #F9F9F9",
"# 	c #BABABA",
"$ 	c #BFBFBF",
"% 	c #FDFDFD",
"& 	c #FEFEFE",
"* 	c #FFFFFF",
"= 	c #A0A0A0",
"- 	c #C1C1C1",
"; 	c #9F9F9F",
"> 	c #FDFDFE",
", 	c #C8C8BF",
"' 	c #FFFFFD",
") 	c #FFFFFC",
"! 	c #A3A3A0",
"~ 	c #6969C0",
"{ 	c #8686FD",
"] 	c #8787FC",
"^ 	c #8787FD",
"/ 	c #54549F",
"( 	c #0000C1",
"_ 	c #0000FD",
": 	c #0303FE",
"< 	c #0505FE",
"[ 	c #0909FE",
"} 	c #0A0AFE",
"| 	c #0707FF",
"1 	c #0404FD",
"2 	c #0404FE",
"3 	c #0202FD",
"4 	c #0202FE",
"5 	c #0202FF",
"6 	c #0000FE",
"7 	c #0000A0",
"8 	c #0505C1",
"9 	c #0D0DFD",
"0 	c #1010FE",
"a 	c #1212FD",
"b 	c #1212FE",
"c 	c #1111FD",
"d 	c #1010FD",
"e 	c #1111FE",
"f 	c #0F0FFE",
"g 	c #0C0CFE",
"h 	c #0909FD",
"i 	c #0404A0",
"j 	c #0606C1",
"k 	c #0C0CFD",
"l 	c #1010FF",
"m 	c #1212FF",
"n 	c #0006C4",
"o 	c #000BFE",
"p 	c #000CFF",
"q 	c #000EFF",
"r 	c #0210FF",
"s 	c #0311FF",
"t 	c #0211FE",
"u 	c #0411FF",
"v 	c #0412FF",
"w 	c #0210FE",
"x 	c #010FFF",
"y 	c #000EFE",
"z 	c #0009FE",
"A 	c #0004A1",
"B 	c #6906B6",
"C 	c #860CE1",
"D 	c #870DE2",
"E 	c #870FE2",
"F 	c #8711E2",
"G 	c #8712E2",
"H 	c #870CE2",
"I 	c #860AE1",
"J 	c #540492",
"K 	c #C81000",
"L 	c #FF1700",
"M 	c #FF1A00",
"N 	c #FF1C00",
"O 	c #FF1D00",
"P 	c #FF1900",
"Q 	c #FF1800",
"R 	c #A30D00",
"S 	c #C31F0A",
"T 	c #FD2C10",
"U 	c #FE2D12",
"V 	c #FF2E14",
"W 	c #FE2F14",
"X 	c #FE3015",
"Y 	c #FF3015",
"Z 	c #FF3115",
"` 	c #FE3115",
" .	c #FF2F14",
"..	c #FE2E12",
"+.	c #FF2D12",
"@.	c #FE2C10",
"#.	c #A21B08",
"$.	c #C4310E",
"%.	c #FD4415",
"&.	c #FE4516",
"*.	c #FE4618",
"=.	c #FE4719",
"-.	c #FE481A",
";.	c #FE471A",
">.	c #FE4619",
",.	c #FE4517",
"'.	c #FE4416",
").	c #FD4514",
"!.	c #A32C0B",
"~.	c #C74612",
"{.	c #FE5E19",
"].	c #FE5E1A",
"^.	c #FE5E1C",
"/.	c #FE5F1D",
"(.	c #FE601E",
"_.	c #FE5F1C",
":.	c #FE5D1B",
"<.	c #FD5E19",
"[.	c #A53E0F",
"}.	c #BE5715",
"|.	c #FE811F",
"1.	c #FF7E1F",
"2.	c #FF7F20",
"3.	c #FF7E21",
"4.	c #FF7E20",
"5.	c #FE821F",
"6.	c #9F4E12",
"7.	c #B46218",
"8.	c #B6611B",
"9.	c #B66220",
"0.	c #B66221",
"a.	c #B66222",
"b.	c #B56122",
"c.	c #B66122",
"d.	c #B6611E",
"e.	c #B56019",
"f.	c #B56418",
"                                            ",
"                                            ",
"                                            ",
". + @ @ @ @ @ @ @ @ @ @ @ @ @ @ @ @ @ @ @ # ",
"$ % & * & & * & & * * & & & * & & * & * & = ",
"- % & & & & & & & & & & & & & & & & & & % ; ",
"- % & & & & & & & & & & & & & & & & & & > = ",
", ' ' ' ' ' ' ' ' ' ' ) ' ) ' ' ' ' ' ' ' ! ",
"~ { ] ] ] ] ] ] ] ] ] ] ] ] ] ] ] ] ] ^ { / ",
"( _ : < [ } | 1 : : 2 3 2 3 2 : 4 5 _ 6 6 7 ",
"8 9 0 a b b c 0 d d d e d e d e 0 d f g h i ",
"j k f l 0 e m e e m m d m e m e 0 l f g [ i ",
"n o p q r r s t u v v w u t v s r x y p z A ",
"B C D E F F G G G G G G G G G G F F E H I J ",
"K L M M N N O O O O O O O O O N N N M P Q R ",
"S T U V W X Y X Z Z Z ` Z X Y X X  ...+.@.#.",
"$.%.&.*.=.=.=.-.-.-.-.-.-.-.;.=.=.>.,.'.).!.",
"~.{.].^././.(.(.(.(.(.(.(.(.(.(./._.^.:.<.[.",
"}.|.1.1.2.3.3.3.3.3.3.3.3.3.3.3.4.2.1.1.5.6.",
"  7.8.9.0.a.b.c.b.b.b.c.b.c.b.c.a.9.d.e.f.  ",
"                                            ",
"                                            "};
