/* XPM */
static char * us22++_xpm[] = {
"22 22 223 2",
"  	c None",
". 	c #1A3361",
"+ 	c #3F5C8A",
"@ 	c #40608E",
"# 	c #486591",
"$ 	c #41618E",
"% 	c #44628F",
"& 	c #3E5E8D",
"* 	c #466390",
"= 	c #40608D",
"- 	c #4B6792",
"; 	c #41608E",
"> 	c #4B6591",
", 	c #6E5C85",
"' 	c #CD6C82",
") 	c #CF6D82",
"! 	c #CF6D81",
"~ 	c #CF6C81",
"{ 	c #CF6B80",
"] 	c #C56476",
"^ 	c #893F4B",
"/ 	c #18335F",
"( 	c #3C6292",
"_ 	c #416596",
": 	c #426696",
"< 	c #3F6495",
"[ 	c #3C6193",
"} 	c #3A5F92",
"| 	c #416595",
"1 	c #456796",
"2 	c #446897",
"3 	c #416495",
"4 	c #747199",
"5 	c #EABAC8",
"6 	c #EDBCC8",
"7 	c #EDBBC8",
"8 	c #EDBAC7",
"9 	c #E8B8C4",
"0 	c #94737B",
"a 	c #16325F",
"b 	c #385D8E",
"c 	c #416394",
"d 	c #416494",
"e 	c #3F6293",
"f 	c #3B5E90",
"g 	c #3A5E90",
"h 	c #3B5F90",
"i 	c #426494",
"j 	c #436595",
"k 	c #456795",
"l 	c #3F6191",
"m 	c #6D628C",
"n 	c #DC99A6",
"o 	c #DF9AA6",
"p 	c #DE99A5",
"q 	c #D996A1",
"r 	c #8B5F65",
"s 	c #3C5E8F",
"t 	c #446594",
"u 	c #3D5F90",
"v 	c #3A5C8E",
"w 	c #3E6091",
"x 	c #416292",
"y 	c #486795",
"z 	c #436393",
"A 	c #446393",
"B 	c #6F658D",
"C 	c #DEA1AD",
"D 	c #E1A2AD",
"E 	c #E1A1AD",
"F 	c #E0A1AC",
"G 	c #DB9DA8",
"H 	c #8D646A",
"I 	c #15305E",
"J 	c #37598A",
"K 	c #446392",
"L 	c #416091",
"M 	c #426191",
"N 	c #3B5B8D",
"O 	c #3C5D8E",
"P 	c #3A5C8D",
"Q 	c #456493",
"R 	c #496794",
"S 	c #3D5D8E",
"T 	c #716A91",
"U 	c #E6B2BE",
"V 	c #E9B3BE",
"W 	c #E9B3BF",
"X 	c #E9B4C0",
"Y 	c #EAB3C0",
"Z 	c #E5AFBB",
"` 	c #947077",
" .	c #1A335F",
"..	c #3E5D8D",
"+.	c #3D5C8D",
"@.	c #466492",
"#.	c #3D5D8D",
"$.	c #36578A",
"%.	c #3F5E8E",
"&.	c #3C5A8C",
"*.	c #486391",
"=.	c #3B5788",
"-.	c #415B8A",
";.	c #634574",
">.	c #C9596C",
",.	c #CC596C",
"'.	c #CB596B",
").	c #CB596C",
"!.	c #CB5A6C",
"~.	c #C75769",
"{.	c #803643",
"].	c #132D5B",
"^.	c #345385",
"/.	c #456391",
"(.	c #3D5B8C",
"_.	c #425F8F",
":.	c #375688",
"<.	c #3A5889",
"[.	c #324F83",
"}.	c #425C8B",
"|.	c #395385",
"1.	c #46608D",
"2.	c #324E81",
"3.	c #727594",
"4.	c #EEDCDF",
"5.	c #F2DDE0",
"6.	c #F1DDDF",
"7.	c #ECD9DB",
"8.	c #998C8D",
"9.	c #1F3660",
"0.	c #435F8D",
"a.	c #3A5788",
"b.	c #486390",
"c.	c #3C5788",
"d.	c #2F4C80",
"e.	c #3F5889",
"f.	c #355183",
"g.	c #4A638F",
"h.	c #365183",
"i.	c #475F8D",
"j.	c #6B5680",
"k.	c #D98797",
"l.	c #DC8897",
"m.	c #DC8797",
"n.	c #DB8696",
"o.	c #DB8695",
"p.	c #D68292",
"q.	c #8B545E",
"r.	c #55607B",
"s.	c #7281A1",
"t.	c #707FA1",
"u.	c #7583A3",
"v.	c #707E9F",
"w.	c #7280A0",
"x.	c #717E9F",
"y.	c #7380A1",
"z.	c #6F7D9F",
"A.	c #7684A3",
"B.	c #7683A2",
"C.	c #8D7A97",
"D.	c #D37484",
"E.	c #D47484",
"F.	c #D37384",
"G.	c #D37283",
"H.	c #D37282",
"I.	c #CE6F7E",
"J.	c #864752",
"K.	c #BAB0B2",
"L.	c #ECE0E3",
"M.	c #EFE2E5",
"N.	c #F0E2E5",
"O.	c #F3E2E4",
"P.	c #F3E1E4",
"Q.	c #F3E1E3",
"R.	c #EEDDDF",
"S.	c #9A8F91",
"T.	c #A14052",
"U.	c #CB5168",
"V.	c #CD536A",
"W.	c #CE546B",
"X.	c #CE556C",
"Y.	c #CE566D",
"Z.	c #CF566D",
"`.	c #C94F66",
" +	c #833443",
".+	c #B5898E",
"++	c #E3ACB4",
"@+	c #E6AFB7",
"#+	c #E6B0B8",
"$+	c #E1ABB3",
"%+	c #947074",
"&+	c #B99896",
"*+	c #E7C0BF",
"=+	c #EAC2C2",
"-+	c #E5BFBE",
";+	c #987D7A",
">+	c #B26D66",
",+	c #DB8781",
"'+	c #DE8984",
")+	c #DE8985",
"!+	c #DE8A85",
"~+	c #DE8A86",
"{+	c #D98580",
"]+	c #935B54",
"^+	c #C4A497",
"/+	c #F0CBBF",
"(+	c #F3CDC2",
"_+	c #F3CEC3",
":+	c #EEC9BD",
"<+	c #A2887B",
"[+	c #AF7B62",
"}+	c #E1987C",
"|+	c #E49A7E",
"1+	c #E49B7E",
"2+	c #E0977A",
"3+	c #906651",
"4+	c #984817",
"5+	c #994A1A",
"6+	c #9A4B1C",
"7+	c #9A4C1D",
"8+	c #9A4C1E",
"9+	c #9A4D1F",
"0+	c #974816",
"                                            ",
"                                            ",
"                                            ",
". + @ # $ % & * = - ; > , ' ) ) ! ! ~ { ] ^ ",
"/ ( _ : < [ } [ | 1 2 3 4 5 6 6 7 7 7 8 9 0 ",
"a b c d e f g h i j k l m n o o o o o p q r ",
"/ s l t l u v w x y z A B C D D D E E F G H ",
"I J K L M N O P Q M R S T U V V V W X Y Z ` ",
" ...+.@.#.+.$.%.&.*.=.-.;.>.,.'.'.).!.!.~.{.",
"].^./.(._.:.<.[.}.|.1.2.3.4.5.5.5.5.6.6.7.8.",
"9.0.a.b.a.c.d.e.f.g.h.i.j.k.l.l.m.m.n.o.p.q.",
"r.s.t.u.v.w.x.y.z.A.z.B.C.D.E.E.E.F.G.H.I.J.",
"K.L.M.M.M.M.M.M.M.M.M.M.N.O.O.O.O.O.P.Q.R.S.",
"T.U.V.W.X.Y.Z.Z.Z.Z.Y.Z.Z.Z.Z.Z.Y.X.W.V.`. +",
".+++@+@+#+#+#+#+#+#+#+#+#+#+#+#+#+#+@+@+$+%+",
"&+*+=+=+=+=+=+=+=+=+=+=+=+=+=+=+=+=+=+=+-+;+",
">+,+'+)+)+!+!+~+~+~+~+~+~+~+!+!+)+)+'+'+{+]+",
"^+/+(+(+(+(+_+_+_+_+_+_+_+_+_+(+(+(+(+(+:+<+",
"[+}+|+|+1+1+1+1+1+1+1+1+1+1+1+1+1+1+|+|+2+3+",
"  4+5+6+7+8+9+9+9+9+9+9+9+9+9+9+8+7+6+5+0+  ",
"                                            ",
"                                            "};
